<svg height="188.7766838049095" width="320.00000000000006" style="width: 320px; height: 188.777px; position: absolute; top: 50%; left: 50%; transform: translate(-50%, -50%) scale(1); z-index: 0; cursor: pointer;"><defs id="SvgjsDefs1001"></defs><g id="SvgjsG1007" featurekey="symbolFeature-0" transform="matrix(1.6666666666666667,0,0,1.6666666666666667,76.66666666666667,-51.19258562723796)" fill="hsl(180, 8%, 97%)"><path xmlns="http://www.w3.org/2000/svg" fill-rule="evenodd" clip-rule="evenodd" d="M79.571,64.144h-36c-0.707,0-1.286,0.578-1.286,1.285v23.143  c0,0.708,0.579,1.286,1.286,1.286h36c0.707,0,1.285-0.578,1.285-1.286V65.429C80.856,64.722,80.278,64.144,79.571,64.144z"></path><path xmlns="http://www.w3.org/2000/svg" fill-rule="evenodd" clip-rule="evenodd" d="M77.046,91.144C77.357,93.325,79.232,95,81.5,95c2.267,0,4.143-1.676,4.454-3.856  H77.046z"></path><path xmlns="http://www.w3.org/2000/svg" fill-rule="evenodd" clip-rule="evenodd" d="M57.025,91.144C56.713,93.325,54.838,95,52.571,95  c-2.268,0-4.143-1.676-4.455-3.856H57.025z"></path><path xmlns="http://www.w3.org/2000/svg" fill-rule="evenodd" clip-rule="evenodd" d="M69.285,61.573V48.856L38.428,33.427L7.571,48.856v44.859  c0,0.71-0.576,1.285-1.286,1.285C5.575,95,5,94.425,5,93.715V48.067h0.005c0-0.469,0.26-0.921,0.708-1.145L37.85,30.854  c0.349-0.177,0.774-0.191,1.151-0.003l32.034,16.017c0.48,0.187,0.822,0.653,0.822,1.199v13.506c0,0.71-0.576,1.285-1.286,1.285  S69.285,62.283,69.285,61.573z"></path><path xmlns="http://www.w3.org/2000/svg" fill-rule="evenodd" clip-rule="evenodd" d="M11.857,78.929h10.714c0.589,0,1.071,0.482,1.071,1.071v10.715  c0,0.589-0.482,1.071-1.071,1.071H11.857c-0.589,0-1.071-0.482-1.071-1.071V80C10.786,79.412,11.268,78.929,11.857,78.929z"></path><path xmlns="http://www.w3.org/2000/svg" fill-rule="evenodd" clip-rule="evenodd" d="M26,78.929h10.714c0.589,0,1.072,0.482,1.072,1.071v10.715  c0,0.589-0.482,1.071-1.072,1.071H26c-0.589,0-1.071-0.482-1.071-1.071V80C24.928,79.412,25.41,78.929,26,78.929z"></path><path xmlns="http://www.w3.org/2000/svg" fill-rule="evenodd" clip-rule="evenodd" d="M11.857,64.787h10.714c0.589,0,1.071,0.481,1.071,1.071v10.714  c0,0.59-0.482,1.072-1.071,1.072H11.857c-0.589,0-1.071-0.482-1.071-1.072V65.858C10.786,65.268,11.268,64.787,11.857,64.787z"></path><path xmlns="http://www.w3.org/2000/svg" fill-rule="evenodd" clip-rule="evenodd" d="M90.063,69.607l4.465,3.652c0.311,0.254,0.472,0.623,0.472,0.995L95,88.572  c0,0.711-0.576,1.286-1.285,1.286H83.429c-0.71,0-1.286-0.575-1.286-1.286V70.573c0-0.71,0.576-1.286,1.286-1.286h5.786  C89.54,69.287,89.837,69.408,90.063,69.607L90.063,69.607z M92.429,74.862l-3.671-3.004h-4.044v6.429h7.715V74.862z"></path></g><g id="SvgjsG1008" featurekey="nameFeature-0" transform="matrix(2.0932731648255785,0,0,2.0932731648255785,-6.705381927288735,104.22806439667296)" fill="hsl(180, 8%, 97%)"><path d="M15.84 11.289000000000001 c5.8789 0 9.4727 4.3164 9.4727 9.5898 c0 5.4102 -3.5938 9.3945 -9.4727 9.3945 l-5.1953 0 l0 9.7266 l-7.4414 0 l0 -28.711 l12.637 0 z M14.551 24.121000000000002 c2.6563 0 3.6914 -1.25 3.6914 -3.3594 c0 -1.9922 -1.0352 -3.3203 -3.6914 -3.3203 l-3.9063 0 l0 6.6797 l3.9063 0 z M48.12921875 40 l-1.8555 -5.3125 l-11.484 0 l-1.8359 5.3125 l-7.5586 0 l10.566 -28.711 l9.1602 0 l10.566 28.711 l-7.5586 0 z M36.91821875 28.555 l7.2266 0 l-3.6133 -10.391 z M58.093725 40 l0 -28.711 l7.4414 0 l0 28.711 l-7.4414 0 z M94.69909375 40 l-8.8281 0 l-7.4805 -12.305 l0 12.305 l-7.4414 0 l0 -28.711 l10.996 0 c6.875 0 9.6094 3.9453 9.6094 8.8672 c0 4.043 -2.3828 6.4063 -5.8203 7.1484 z M84.46509375 20.234 c0 -1.7578 -0.99609 -2.8711 -3.75 -2.8711 l-2.3242 0 l0 5.7617 l2.3242 0 c2.7539 0 3.75 -1.1328 3.75 -2.8906 z M109.46903125 40.39063 c-8.4375 0 -14.473 -5.8789 -14.473 -14.668 c0 -8.9648 6.2305 -14.844 14.902 -14.844 c5.7617 0 10.41 2.5586 12.93 6.7969 l-6.5234 3.4766 c-1.2695 -2.6367 -3.5547 -3.9063 -6.4063 -3.9063 c-4.3164 0 -7.4805 2.9883 -7.4805 8.2813 c0 4.9609 2.8125 8.5156 7.7734 8.5156 c2.7539 0 5.8008 -1.1133 6.7188 -4.3555 l-6.6797 0 l0 -5.8789 l13.633 0 l0 16.191 l-5.7617 0 l0 -3.0859 c-1.7969 2.1289 -4.5508 3.4766 -8.6328 3.4766 z M141.1519375 40.39063 c-8.6719 0 -14.902 -5.8789 -14.902 -14.746 c0 -8.9258 6.2305 -14.766 14.902 -14.766 c8.6914 0 14.922 5.8398 14.922 14.766 c0 8.8672 -6.2305 14.746 -14.922 14.746 z M141.1519375 33.6328 c4.3359 0 7.5781 -3.0664 7.5781 -7.9883 s-3.2422 -8.0078 -7.5781 -8.0078 c-4.3164 0 -7.5195 3.0859 -7.5195 8.0078 s3.2031 7.9883 7.5195 7.9883 z"></path></g></svg>